<svg xmlns="http://www.w3.org/2000/svg" version="1.1" xmlns:xlink="http://www.w3.org/1999/xlink" xmlns:svgjs="http://svgjs.dev/svgjs" width="1500" height="1500" viewBox="0 0 1500 1500"><rect width="1500" height="1500" fill="#ea9937"></rect><g transform="matrix(0.6666666666666666,0,0,0.6666666666666666,250,250.0000720475332)"><svg viewBox="0 0 280 280" data-background-color="#ea9937" preserveAspectRatio="xMidYMid meet" height="1500" width="1500" xmlns="http://www.w3.org/2000/svg" xmlns:xlink="http://www.w3.org/1999/xlink"><g id="tight-bounds" transform="matrix(1,0,0,1,0,0.000020173309195570255)"><svg viewBox="0 0 280 280" height="280" width="280"><g><svg viewBox="0 0 280 280" height="280" width="280"><g><svg viewBox="0 0 280 280" height="280" width="280"><g id="textblocktransform"><svg viewBox="0 0 280 280" height="280" width="280" id="textblock"><g><svg viewBox="0 0 280 280" height="280" width="280"><g transform="matrix(1,0,0,1,57.50420886156945,57.50420886156945)"><svg viewBox="0 0 164.9915822768611 164.9915822768611" height="164.9915822768611" width="164.9915822768611"><g id="icon-0"><circle r="82" cx="82.49579113843055" cy="82.49579113843055" fill="#ffffff" data-fill-palette-color="accent"></circle><svg xmlns="http://www.w3.org/2000/svg" xmlns:xlink="http://www.w3.org/1999/xlink" xmlns:a="http://ns.adobe.com/AdobeSVGViewerExtensions/3.0/" version="1.1" x="24.748737341529164" y="24.74873734152917" viewBox="0 0 97.42699999999999 46.713" enable-background="new -1.286 -24.917 100 100" xml:space="preserve" height="115.49410759380275" width="115.49410759380275" class="icon-xg-0" data-fill-palette-color="quaternary" id="xg-0"><path d="M35.03 35.148c-7.732-3.146-11.661-3.487-15.821-3.848-4.101-0.354-8.347-0.729-16.382-3.95-0.597 0.901-1.09 2.651-1.487 4.772 8.261 2.153 12.443 1.988 16.477 1.821 4.081-0.168 8.298-0.341 16.548 1.847 2.792 0.741 4.966 1.47 6.695 2.176C39.524 37.117 37.569 36.181 35.03 35.148z" fill="#ea9937" data-fill-palette-color="quaternary"></path><path d="M34.048 37.982c-8.068-2.141-12.008-1.98-16.182-1.808-4.11 0.17-8.367 0.338-16.739-1.835-0.27 1.654-0.488 3.445-0.661 5.174 8.167 0.969 12.216 0.268 16.122-0.416 4.021-0.703 8.179-1.43 16.647-0.348 3.312 0.424 5.807 0.94 7.732 1.5C39.258 39.53 37.023 38.771 34.048 37.982z" fill="#ea9937" data-fill-palette-color="quaternary"></path><path d="M16.801 41.31c-3.991 0.697-8.125 1.412-16.451 0.43C0.18 43.635 0.063 45.386 0 46.685c8.365-0.059 12.312-1.281 16.133-2.465 3.901-1.208 7.934-2.457 16.469-2.457 2.886 0 5.174 0.146 7.025 0.387-1.702-0.43-3.83-0.831-6.547-1.178C24.8 39.912 20.914 40.591 16.801 41.31z" fill="#ea9937" data-fill-palette-color="quaternary"></path><path d="M79.611 33.969c4.043 0.165 8.232 0.333 16.533-1.835-0.41-2.307-0.904-4.096-1.479-4.783-8.078 3.246-12.334 3.619-16.447 3.975-4.16 0.361-8.09 0.7-15.822 3.849-2.539 1.034-4.496 1.97-6.031 2.821 1.729-0.707 3.904-1.438 6.699-2.178C71.312 33.628 75.531 33.802 79.611 33.969z" fill="#ea9937" data-fill-palette-color="quaternary"></path><path d="M94.041 25.278L85.287 0c-6.336 2.515-9.715 2.807-12.984 3.09-3.342 0.289-6.498 0.562-12.707 3.089-8.611 3.506-9.078 5.696-9.328 6.873-0.121 0.565-0.264 1.197-1.038 1.609v28.725c0.004-0.006 0.012-0.012 0.017-0.02 0.036-0.052 0.068-0.115 0.1-0.184 0.065-0.158 0.114-0.348 0.174-0.625 0.39-1.831 1.042-4.896 12.414-9.523 7.904-3.22 12.111-3.583 16.18-3.936C82.107 28.753 86.234 28.397 94.041 25.278z" fill="#ea9937" data-fill-palette-color="quaternary"></path><path d="M80.837 39.123c3.91 0.684 7.961 1.383 16.141 0.414-0.172-1.79-0.383-3.569-0.633-5.184-8.398 2.184-12.664 2.017-16.785 1.846-4.174-0.171-8.113-0.332-16.182 1.809-2.975 0.79-5.209 1.549-6.922 2.27 1.926-0.56 4.422-1.076 7.734-1.5C72.656 37.693 76.818 38.42 80.837 39.123z" fill="#ea9937" data-fill-palette-color="quaternary"></path><path d="M81.294 44.247c3.82 1.183 7.768 2.406 16.133 2.466-0.072-1.51-0.188-3.213-0.336-4.948-8.334 0.985-12.473 0.269-16.465-0.429-4.113-0.719-7.998-1.397-16.279-0.338-2.715 0.348-4.844 0.75-6.545 1.178 1.85-0.238 4.137-0.387 7.023-0.387C73.361 41.789 77.394 43.039 81.294 44.247z" fill="#ea9937" data-fill-palette-color="quaternary"></path><path d="M47.907 42.533c0.033 0.154 0.061 0.279 0.091 0.394V14.662c-0.774-0.412-0.917-1.044-1.037-1.609-0.251-1.177-0.717-3.367-9.329-6.873-6.209-2.527-9.365-2.8-12.706-3.089-3.27-0.283-6.647-0.576-12.981-3.089L3.382 25.25c7.81 3.121 11.938 3.479 15.933 3.824 4.068 0.353 8.274 0.717 16.179 3.934C46.866 37.636 47.518 40.702 47.907 42.533z" fill="#ea9937" data-fill-palette-color="quaternary"></path></svg></g></svg></g><g id="text-0"><path d="M27.172 111.275l-26.396-10.078 4.895-12.821c0.739-1.936 1.549-3.549 2.431-4.84 0.882-1.291 1.808-2.284 2.779-2.978 0.971-0.695 1.97-1.106 2.998-1.232 1.027-0.126 2.057 0.007 3.087 0.401v0c1.332 0.509 2.345 1.327 3.037 2.456 0.692 1.128 0.99 2.538 0.892 4.228v0c1.097-1.741 2.396-2.938 3.897-3.588 1.501-0.651 3.107-0.65 4.817 0.003v0c2.263 0.864 3.696 2.484 4.301 4.86 0.605 2.377 0.135 5.589-1.411 9.637v0zM20.432 92.716l-3.239 8.484 9.239 3.527 3.239-8.484c0.72-1.885 0.895-3.475 0.524-4.769-0.37-1.293-1.31-2.228-2.818-2.804v0c-1.609-0.614-2.989-0.565-4.139 0.148-1.151 0.713-2.086 2.012-2.806 3.898zM14.365 100.12l2.807-7.353c1.392-3.645 0.579-6.044-2.437-7.195v0c-1.332-0.509-2.532-0.441-3.599 0.203-1.067 0.644-1.946 1.871-2.637 3.681v0l-2.807 7.353z" fill="#ffffff" data-fill-palette-color="primary"></path><path d="M49.371 66.273v0c0.546-0.666 0.933-1.392 1.161-2.18 0.228-0.787 0.256-1.617 0.084-2.489-0.172-0.872-0.578-1.788-1.218-2.748-0.64-0.96-1.563-1.934-2.77-2.924v0c-1.207-0.99-2.343-1.704-3.41-2.143-1.066-0.439-2.044-0.658-2.933-0.657-0.889 0.002-1.697 0.192-2.425 0.57-0.727 0.378-1.364 0.9-1.91 1.565v0c-0.546 0.666-0.933 1.392-1.161 2.18-0.228 0.787-0.256 1.617-0.084 2.489 0.172 0.872 0.578 1.788 1.218 2.748 0.64 0.96 1.563 1.934 2.77 2.924v0c1.207 0.99 2.343 1.704 3.41 2.143 1.066 0.439 2.044 0.658 2.933 0.657 0.889-0.002 1.697-0.192 2.425-0.57 0.727-0.378 1.364-0.9 1.91-1.565zM33.921 53.604v0c1.143-1.394 2.389-2.521 3.739-3.381 1.349-0.86 2.734-1.403 4.155-1.63 1.421-0.227 2.87-0.126 4.346 0.301 1.476 0.428 2.912 1.213 4.306 2.356v0c1.415 1.16 2.471 2.418 3.169 3.774 0.698 1.355 1.075 2.752 1.132 4.19 0.056 1.438-0.205 2.903-0.785 4.394-0.579 1.491-1.44 2.934-2.583 4.328v0c-1.16 1.415-2.411 2.547-3.751 3.397-1.34 0.85-2.721 1.388-4.143 1.614-1.421 0.227-2.865 0.13-4.33-0.289-1.466-0.419-2.906-1.209-4.322-2.369v0c-1.394-1.143-2.445-2.397-3.154-3.76-0.708-1.364-1.091-2.765-1.146-4.203-0.056-1.438 0.201-2.897 0.771-4.379 0.571-1.481 1.436-2.929 2.596-4.343z" fill="#ffffff" data-fill-palette-color="primary"></path><path d="M76.072 42.979v0c0.719-0.473 1.305-1.052 1.756-1.736 0.452-0.684 0.725-1.468 0.821-2.351 0.095-0.884-0.02-1.879-0.346-2.986-0.325-1.107-0.917-2.312-1.775-3.615v0c-0.858-1.304-1.73-2.324-2.618-3.061-0.887-0.737-1.756-1.236-2.605-1.499-0.849-0.263-1.677-0.322-2.484-0.178-0.807 0.144-1.57 0.453-2.29 0.927v0c-0.719 0.473-1.305 1.052-1.756 1.736-0.452 0.684-0.725 1.468-0.821 2.351-0.095 0.884 0.02 1.879 0.346 2.986 0.325 1.107 0.917 2.312 1.775 3.615v0c0.858 1.304 1.73 2.324 2.618 3.061 0.887 0.737 1.756 1.236 2.605 1.499 0.849 0.263 1.677 0.322 2.484 0.178 0.807-0.144 1.57-0.453 2.289-0.927zM65.089 26.288v0c1.506-0.991 3.031-1.696 4.575-2.116 1.544-0.42 3.028-0.527 4.452-0.32 1.424 0.206 2.778 0.733 4.06 1.58 1.282 0.847 2.419 2.024 3.41 3.531v0c1.006 1.529 1.64 3.044 1.903 4.545 0.263 1.502 0.208 2.947-0.166 4.337-0.374 1.39-1.059 2.71-2.056 3.962-0.996 1.252-2.248 2.373-3.753 3.364v0c-1.529 1.006-3.059 1.715-4.592 2.127-1.532 0.412-3.011 0.515-4.435 0.309-1.424-0.206-2.774-0.728-4.049-1.564-1.275-0.836-2.415-2.018-3.421-3.547v0c-0.991-1.506-1.622-3.016-1.892-4.528-0.271-1.513-0.219-2.964 0.155-4.354 0.374-1.39 1.054-2.707 2.039-3.951 0.985-1.244 2.242-2.369 3.77-3.375z" fill="#ffffff" data-fill-palette-color="primary"></path><path d="M113.685 28.905l-8.638-7.122-4.063 1.205 2.64 8.9-5.418 1.607-8.033-27.088 5.417-1.607 4.591 15.479 4.063-1.205 3.473-10.292 5.805-1.721-3.903 11.682 10.258 8.325z" fill="#ffffff" data-fill-palette-color="primary"></path><path d="M179.378 24.781v0c-0.236 1.133-0.694 2.144-1.374 3.033-0.68 0.889-1.629 1.585-2.847 2.086-1.218 0.502-2.72 0.787-4.507 0.854-1.787 0.067-3.919-0.157-6.395-0.673v0c-1.396-0.291-2.737-0.681-4.024-1.169-1.286-0.488-2.488-1.055-3.604-1.699-1.116-0.645-2.122-1.356-3.018-2.135-0.896-0.778-1.642-1.586-2.237-2.424v0l2.47-1.959c1.232 1.604 2.78 2.95 4.642 4.039 1.862 1.089 3.992 1.883 6.389 2.383v0c2.661 0.555 4.621 0.578 5.881 0.072 1.26-0.507 2.025-1.406 2.294-2.697v0c0.209-1.001-0.05-1.935-0.777-2.8-0.727-0.866-2.062-1.845-4.006-2.938v0l-7.013-3.936c-2.311-1.306-3.972-2.704-4.981-4.193-1.009-1.489-1.316-3.181-0.921-5.077v0c0.203-0.975 0.63-1.868 1.281-2.681 0.65-0.813 1.536-1.467 2.656-1.962 1.12-0.495 2.48-0.789 4.08-0.881 1.6-0.093 3.467 0.084 5.6 0.528v0c1.291 0.269 2.553 0.642 3.787 1.12 1.234 0.477 2.395 1.035 3.485 1.674 1.09 0.64 2.083 1.348 2.979 2.126 0.896 0.778 1.642 1.586 2.237 2.425v0l-2.47 1.959c-1.232-1.604-2.714-2.937-4.444-3.998-1.73-1.062-3.794-1.842-6.192-2.342v0c-1.976-0.412-3.529-0.378-4.659 0.101-1.131 0.479-1.8 1.219-2.009 2.22v0c-0.115 0.553-0.123 1.053-0.024 1.499 0.099 0.447 0.329 0.893 0.69 1.34 0.361 0.446 0.865 0.895 1.513 1.346 0.648 0.451 1.463 0.958 2.445 1.52v0l6.974 3.928c2.238 1.264 3.913 2.657 5.025 4.181 1.112 1.524 1.47 3.234 1.074 5.13z" fill="#ffffff" data-fill-palette-color="primary"></path><path d="M213.475 36.101l-6.108 11.151-4.956-2.715 6.108-11.151c0.931-1.699 1.175-3.153 0.732-4.362-0.442-1.209-1.466-2.253-3.071-3.132v0l-4.602-2.521-8.725 15.931-4.957-2.715 13.573-24.78 4.957 2.714-3.491 6.372 4.602 2.521c3.375 1.849 5.538 3.823 6.489 5.924 0.951 2.101 0.767 4.355-0.551 6.763z" fill="#ffffff" data-fill-palette-color="primary"></path><path d="M226.569 62.709v0c0.916 0.948 1.936 1.675 3.059 2.18 1.124 0.505 2.369 0.864 3.735 1.079v0l-0.621 2.843c-0.684-0.05-1.4-0.191-2.147-0.422-0.748-0.232-1.489-0.545-2.225-0.938-0.735-0.393-1.455-0.848-2.16-1.365-0.705-0.517-1.356-1.085-1.954-1.704v0c-1.327-1.374-2.359-2.8-3.094-4.279-0.735-1.478-1.143-2.946-1.222-4.403-0.079-1.457 0.174-2.89 0.76-4.297 0.586-1.408 1.537-2.747 2.853-4.018v0c1.297-1.252 2.654-2.161 4.072-2.727 1.418-0.565 2.831-0.807 4.238-0.725 1.407 0.082 2.785 0.462 4.133 1.142 1.349 0.68 2.621 1.639 3.818 2.879v0c1.122 1.161 2.004 2.423 2.646 3.785 0.642 1.362 0.994 2.743 1.055 4.143 0.061 1.4-0.167 2.78-0.686 4.142-0.518 1.361-1.378 2.621-2.578 3.78v0l-2.032 1.963-11.973-12.398c-1.382 1.784-1.996 3.453-1.843 5.006 0.154 1.554 0.876 2.998 2.166 4.334zM237.927 49.776v0c-0.542-0.561-1.153-0.981-1.834-1.259-0.68-0.278-1.426-0.372-2.236-0.282-0.81 0.091-1.691 0.38-2.641 0.868-0.951 0.488-1.958 1.227-3.022 2.216v0l7.851 8.13c1.007-0.972 1.765-1.929 2.277-2.872 0.511-0.943 0.822-1.832 0.931-2.667 0.11-0.835 0.038-1.607-0.216-2.316-0.254-0.709-0.624-1.314-1.11-1.818z" fill="#ffffff" data-fill-palette-color="primary"></path><path d="M266.113 72.087l-24.151 14.664-2.933-4.831 24.152-14.663z" fill="#ffffff" data-fill-palette-color="primary"></path><path d="M267.142 94.305l0.382-0.128c2.5-0.84 4.725-0.722 6.677 0.353 1.951 1.076 3.411 3.055 4.38 5.938v0c0.326 0.969 0.526 1.988 0.601 3.055 0.075 1.068 0.05 2.049-0.076 2.942v0l-2.873-0.312c0.118-0.579 0.178-1.266 0.18-2.061 0.002-0.796-0.125-1.576-0.382-2.342v0c-0.18-0.536-0.454-1.011-0.82-1.427-0.367-0.416-0.823-0.738-1.369-0.967-0.545-0.228-1.199-0.335-1.96-0.32-0.762 0.015-1.614 0.181-2.558 0.497v0l-0.382 0.129 1.993 5.93-2.678 0.9-1.993-5.93-16.452 5.529-1.801-5.356 16.452-5.529-1.221-3.635 2.678-0.9z" fill="#ffffff" data-fill-palette-color="primary"></path><path d="M8.87 143.232c0-1.839 1.491-3.33 3.331-3.33 1.839 0 3.33 1.491 3.33 3.33 0 1.839-1.491 3.33-3.33 3.331-1.839 0-3.33-1.491-3.331-3.331z" fill="#ffffff" data-fill-palette-color="primary"></path><path d="M263.164 143.232c0-1.839 1.491-3.33 3.33-3.33 1.839 0 3.33 1.491 3.331 3.33 0 1.839-1.491 3.33-3.331 3.331-1.839 0-3.33-1.491-3.33-3.331z" fill="#ffffff" data-fill-palette-color="primary"></path></g><g id="text-1"><path d="M7.333 182.887l27.118-10.45 5.076 13.173c0.767 1.99 1.255 3.781 1.464 5.373 0.218 1.596 0.194 2.993-0.072 4.191-0.266 1.198-0.749 2.199-1.449 3.002-0.694 0.801-1.571 1.406-2.631 1.815v0c-1.368 0.527-2.707 0.6-4.015 0.217-1.304-0.391-2.5-1.268-3.587-2.63v0c0.358 2.09 0.187 3.9-0.514 5.432-0.7 1.532-1.929 2.636-3.687 3.313v0c-2.323 0.895-4.533 0.64-6.631-0.765-2.096-1.398-3.946-4.178-5.55-8.34v0zM25.256 192.439l-3.356-8.709-9.492 3.657 3.357 8.71c0.747 1.94 1.706 3.275 2.874 4.007 1.171 0.738 2.532 0.809 4.083 0.211v0c1.657-0.639 2.679-1.627 3.064-2.965 0.394-1.334 0.218-2.971-0.53-4.911zM24.8 182.612l2.91 7.552c1.442 3.741 3.713 5.014 6.814 3.819v0c1.368-0.527 2.238-1.403 2.61-2.628 0.372-1.225 0.199-2.766-0.517-4.624v0l-2.91-7.551z" fill="#ffffff" data-fill-palette-color="primary"></path><path d="M36.164 231.784v0c0.566 0.684 1.225 1.218 1.977 1.599 0.747 0.386 1.577 0.577 2.49 0.573 0.917 0.001 1.921-0.226 3.01-0.682 1.099-0.455 2.268-1.194 3.508-2.218v0c1.234-1.02 2.178-2.027 2.831-3.021 0.658-0.989 1.072-1.934 1.244-2.835 0.176-0.896 0.144-1.747-0.095-2.554-0.239-0.806-0.641-1.552-1.207-2.236v0c-0.566-0.684-1.222-1.22-1.969-1.606-0.747-0.386-1.577-0.577-2.49-0.573-0.917-0.001-1.923 0.228-3.018 0.688-1.099 0.455-2.266 1.192-3.5 2.213v0c-1.239 1.024-2.185 2.034-2.839 3.027-0.652 0.985-1.064 1.927-1.236 2.829-0.176 0.896-0.144 1.747 0.095 2.553 0.234 0.811 0.633 1.558 1.199 2.243zM52.007 218.687v0c1.183 1.431 2.075 2.911 2.675 4.44 0.599 1.538 0.872 3.045 0.818 4.521-0.05 1.481-0.437 2.923-1.163 4.326-0.721 1.408-1.795 2.701-3.221 3.88v0c-1.452 1.2-2.932 2.018-4.44 2.453-1.504 0.44-2.988 0.545-4.452 0.316-1.46-0.225-2.886-0.778-4.279-1.66-1.388-0.877-2.674-2.031-3.858-3.463v0c-1.2-1.452-2.096-2.937-2.687-4.455-0.596-1.523-0.867-3.023-0.813-4.499 0.05-1.481 0.432-2.919 1.147-4.314 0.711-1.399 1.792-2.699 3.244-3.899v0c1.426-1.179 2.898-1.99 4.417-2.433 1.514-0.449 3.004-0.558 4.468-0.329 1.46 0.225 2.885 0.771 4.274 1.638 1.38 0.867 2.67 2.026 3.87 3.478z" fill="#ffffff" data-fill-palette-color="primary"></path><path d="M66.942 258.501v0c0.744 0.485 1.532 0.798 2.363 0.939 0.828 0.146 1.677 0.082 2.548-0.195 0.876-0.272 1.766-0.788 2.671-1.547 0.914-0.761 1.81-1.815 2.688-3.162v0c0.874-1.341 1.475-2.584 1.803-3.727 0.333-1.14 0.448-2.165 0.344-3.077-0.099-0.908-0.382-1.711-0.851-2.409-0.468-0.699-1.074-1.29-1.818-1.776v0c-0.744-0.485-1.53-0.801-2.358-0.947-0.828-0.146-1.677-0.082-2.548 0.195-0.876 0.272-1.768 0.791-2.676 1.555-0.914 0.761-1.808 1.813-2.682 3.154v0c-0.878 1.347-1.481 2.592-1.809 3.736-0.33 1.134-0.442 2.157-0.338 3.068 0.099 0.908 0.382 1.711 0.85 2.409 0.464 0.704 1.069 1.299 1.813 1.784zM78.167 241.282v0c1.555 1.014 2.847 2.161 3.875 3.442 1.03 1.29 1.739 2.648 2.127 4.073 0.393 1.429 0.453 2.921 0.178 4.476-0.269 1.559-0.909 3.113-1.92 4.663v0c-1.029 1.578-2.198 2.799-3.508 3.663-1.305 0.868-2.69 1.41-4.156 1.627-1.461 0.22-2.987 0.117-4.58-0.311-1.587-0.424-3.158-1.143-4.713-2.157v0c-1.578-1.029-2.875-2.18-3.892-3.453-1.023-1.277-1.728-2.628-2.116-4.053-0.393-1.429-0.456-2.915-0.188-4.46 0.262-1.548 0.908-3.11 1.936-4.688v0c1.01-1.55 2.174-2.762 3.492-3.638 1.312-0.879 2.701-1.427 4.167-1.644 1.461-0.22 2.983-0.123 4.568 0.292 1.575 0.417 3.152 1.139 4.73 2.168z" fill="#ffffff" data-fill-palette-color="primary"></path><path d="M108.428 278.139l-3.505-10.967-4.185-1.221-2.675 9.163-5.579-1.629 8.143-27.897 5.58 1.629-4.654 15.944 4.184 1.221 8.739-6.962 5.977 1.744-9.881 7.922 4.23 12.914z" fill="#ffffff" data-fill-palette-color="primary"></path><path d="M181.256 267.494v0c0.245 1.165 0.23 2.306-0.044 3.423-0.274 1.116-0.879 2.161-1.815 3.134-0.942 0.982-2.24 1.87-3.895 2.665-1.66 0.803-3.764 1.472-6.311 2.007v0c-1.435 0.302-2.857 0.487-4.265 0.557-1.415 0.071-2.78 0.035-4.096-0.108-1.323-0.148-2.566-0.402-3.728-0.763-1.163-0.367-2.201-0.823-3.113-1.367v0l1.522-2.867c1.827 1.005 3.84 1.637 6.039 1.896 2.206 0.258 4.54 0.128 7.002-0.389v0c2.739-0.576 4.598-1.362 5.577-2.359 0.978-1.003 1.328-2.166 1.05-3.489v0c-0.217-1.034-0.848-1.808-1.891-2.325-1.043-0.516-2.706-0.885-4.986-1.106v0l-8.235-0.816c-2.713-0.282-4.853-0.915-6.421-1.898-1.561-0.985-2.547-2.455-2.958-4.41v0c-0.21-1.001-0.177-2.018 0.1-3.053 0.277-1.034 0.841-2.016 1.691-2.944 0.85-0.928 2.011-1.767 3.482-2.516 1.466-0.741 3.296-1.343 5.488-1.803v0c1.33-0.28 2.676-0.449 4.039-0.509 1.356-0.058 2.678-0.013 3.967 0.135 1.291 0.155 2.52 0.412 3.689 0.772 1.163 0.367 2.198 0.823 3.102 1.368v0l-1.511 2.865c-1.827-1.005-3.774-1.65-5.842-1.937-2.068-0.287-4.336-0.171-6.804 0.348v0c-2.028 0.426-3.474 1.098-4.34 2.015-0.872 0.919-1.2 1.895-0.983 2.929v0c0.119 0.566 0.318 1.04 0.598 1.421 0.28 0.381 0.681 0.706 1.205 0.974 0.525 0.275 1.186 0.49 1.981 0.645 0.796 0.156 1.771 0.298 2.926 0.427v0l8.195 0.824c2.627 0.266 4.778 0.886 6.454 1.86 1.677 0.981 2.721 2.446 3.131 4.394z" fill="#ffffff" data-fill-palette-color="primary"></path><path d="M211.833 246.067l6.303 11.459-5.093 2.801-6.303-11.458c-0.96-1.745-2.087-2.76-3.38-3.047-1.291-0.281-2.761 0.033-4.412 0.941v0l-4.73 2.602 9.002 16.366-5.092 2.801-14.007-25.464 5.093-2.801 3.603 6.552 4.731-2.602c3.466-1.906 6.372-2.695 8.718-2.366 2.35 0.335 4.205 1.741 5.567 4.216z" fill="#ffffff" data-fill-palette-color="primary"></path><path d="M239.166 235.405v0c0.942-0.979 1.651-2.057 2.128-3.232 0.477-1.175 0.799-2.466 0.966-3.872v0l2.951 0.527c-0.024 0.705-0.143 1.444-0.357 2.22-0.208 0.78-0.503 1.556-0.882 2.329-0.375 0.769-0.815 1.526-1.319 2.274-0.504 0.738-1.064 1.427-1.68 2.066v0c-1.362 1.416-2.789 2.531-4.281 3.345-1.488 0.809-2.98 1.283-4.475 1.422-1.496 0.139-2.977-0.068-4.444-0.62-1.471-0.547-2.886-1.473-4.243-2.779v0c-1.333-1.282-2.316-2.643-2.949-4.082-0.637-1.434-0.941-2.874-0.912-4.321 0.034-1.452 0.372-2.886 1.015-4.302 0.648-1.411 1.585-2.755 2.812-4.03v0c1.152-1.198 2.415-2.152 3.791-2.864 1.375-0.712 2.783-1.127 4.222-1.246 1.435-0.114 2.863 0.07 4.286 0.552 1.413 0.482 2.74 1.319 3.981 2.513v0l2.094 2.015-12.283 12.771c1.882 1.353 3.618 1.921 5.208 1.704 1.59-0.217 3.047-1.013 4.371-2.39zM225.445 224.225v0c-0.555 0.577-0.963 1.22-1.225 1.929-0.262 0.709-0.33 1.479-0.205 2.309 0.126 0.83 0.457 1.723 0.994 2.679 0.533 0.96 1.33 1.97 2.393 3.029v0l8.058-8.378c-1.038-0.998-2.051-1.744-3.041-2.239-0.985-0.49-1.911-0.774-2.779-0.852-0.863-0.083-1.653 0.02-2.37 0.31-0.718 0.29-1.326 0.694-1.825 1.213z" fill="#ffffff" data-fill-palette-color="primary"></path><path d="M235.404 195.533l24.843 15.08-3.016 4.969-24.843-15.08z" fill="#ffffff" data-fill-palette-color="primary"></path><path d="M248.369 186.238l-0.392-0.133c-2.568-0.869-4.318-2.352-5.249-4.449-0.925-2.095-0.886-4.624 0.117-7.587v0c0.336-0.994 0.806-1.954 1.41-2.879 0.602-0.919 1.234-1.706 1.896-2.363v0l2.151 2.049c-0.455 0.4-0.931 0.925-1.426 1.573-0.496 0.649-0.878 1.368-1.146 2.159v0c-0.185 0.548-0.257 1.106-0.215 1.674 0.04 0.575 0.21 1.122 0.51 1.642 0.304 0.529 0.772 1.025 1.404 1.487 0.632 0.462 1.435 0.858 2.41 1.188v0l0.392 0.133 2.063-6.099 2.753 0.931-2.063 6.099 16.91 5.719-1.862 5.506-16.91-5.719-1.264 3.737-2.753-0.931z" fill="#ffffff" data-fill-palette-color="primary"></path></g></svg></g></svg></g></svg></g></svg></g><defs></defs></svg><rect width="280" height="280" fill="none" stroke="none" visibility="hidden"></rect></g></svg></g></svg>